<mxfile host="Electron" agent="Mozilla/5.0 (Macintosh; Intel Mac OS X 10_15_7) AppleWebKit/537.36 (KHTML, like Gecko) draw.io/25.0.2 Chrome/128.0.6613.186 Electron/32.2.5 Safari/537.36" version="25.0.2">
  <diagram name="Page-1" id="1WE568LWMVHtuKM3JDja">
    <mxGraphModel dx="-811" dy="588" grid="1" gridSize="10" guides="1" tooltips="1" connect="1" arrows="1" fold="1" page="1" pageScale="1" pageWidth="827" pageHeight="1169" background="none" math="1" shadow="0">
      <root>
        <mxCell id="0" />
        <mxCell id="1" parent="0" />
        <mxCell id="cquxBugVdTG6TD16O6YO-74" value="" style="group" parent="1" vertex="1" connectable="0">
          <mxGeometry x="2320" y="660" width="70" height="80" as="geometry" />
        </mxCell>
        <mxCell id="cquxBugVdTG6TD16O6YO-75" value="" style="rounded=0;whiteSpace=wrap;html=1;fillColor=#f8cecc;strokeColor=#b85450;" parent="cquxBugVdTG6TD16O6YO-74" vertex="1">
          <mxGeometry width="10" height="80" as="geometry" />
        </mxCell>
        <mxCell id="cquxBugVdTG6TD16O6YO-76" value="" style="rounded=0;whiteSpace=wrap;html=1;fillColor=#f8cecc;strokeColor=#b85450;" parent="cquxBugVdTG6TD16O6YO-74" vertex="1">
          <mxGeometry x="10" y="10" width="10" height="60" as="geometry" />
        </mxCell>
        <mxCell id="cquxBugVdTG6TD16O6YO-77" value="" style="rounded=0;whiteSpace=wrap;html=1;fillColor=#f8cecc;strokeColor=#b85450;" parent="cquxBugVdTG6TD16O6YO-74" vertex="1">
          <mxGeometry x="20" y="20" width="10" height="40" as="geometry" />
        </mxCell>
        <mxCell id="cquxBugVdTG6TD16O6YO-78" value="" style="rounded=0;whiteSpace=wrap;html=1;fillColor=#f8cecc;strokeColor=#b85450;" parent="cquxBugVdTG6TD16O6YO-74" vertex="1">
          <mxGeometry x="30" y="30" width="10" height="20" as="geometry" />
        </mxCell>
        <mxCell id="cquxBugVdTG6TD16O6YO-79" value="" style="rounded=0;whiteSpace=wrap;html=1;fillColor=#f8cecc;strokeColor=#b85450;" parent="cquxBugVdTG6TD16O6YO-74" vertex="1">
          <mxGeometry x="40" y="20" width="10" height="40" as="geometry" />
        </mxCell>
        <mxCell id="cquxBugVdTG6TD16O6YO-80" value="" style="rounded=0;whiteSpace=wrap;html=1;fillColor=#f8cecc;strokeColor=#b85450;" parent="cquxBugVdTG6TD16O6YO-74" vertex="1">
          <mxGeometry x="50" y="10" width="10" height="60" as="geometry" />
        </mxCell>
        <mxCell id="cquxBugVdTG6TD16O6YO-81" value="" style="rounded=0;whiteSpace=wrap;html=1;fillColor=#f8cecc;strokeColor=#b85450;" parent="cquxBugVdTG6TD16O6YO-74" vertex="1">
          <mxGeometry x="60" width="10" height="80" as="geometry" />
        </mxCell>
        <mxCell id="cquxBugVdTG6TD16O6YO-82" value="&#xa;" style="group" parent="1" vertex="1" connectable="0">
          <mxGeometry x="1990" y="660" width="70" height="80" as="geometry" />
        </mxCell>
        <mxCell id="cquxBugVdTG6TD16O6YO-83" value="" style="rounded=0;whiteSpace=wrap;html=1;fillColor=#f8cecc;strokeColor=#b85450;" parent="cquxBugVdTG6TD16O6YO-82" vertex="1">
          <mxGeometry width="10" height="80" as="geometry" />
        </mxCell>
        <mxCell id="cquxBugVdTG6TD16O6YO-84" value="" style="rounded=0;whiteSpace=wrap;html=1;fillColor=#f8cecc;strokeColor=#b85450;" parent="cquxBugVdTG6TD16O6YO-82" vertex="1">
          <mxGeometry x="10" y="10" width="10" height="60" as="geometry" />
        </mxCell>
        <mxCell id="cquxBugVdTG6TD16O6YO-85" value="" style="rounded=0;whiteSpace=wrap;html=1;fillColor=#f8cecc;strokeColor=#b85450;" parent="cquxBugVdTG6TD16O6YO-82" vertex="1">
          <mxGeometry x="20" y="20" width="10" height="40" as="geometry" />
        </mxCell>
        <mxCell id="cquxBugVdTG6TD16O6YO-86" value="" style="rounded=0;whiteSpace=wrap;html=1;fillColor=#f8cecc;strokeColor=#b85450;" parent="cquxBugVdTG6TD16O6YO-82" vertex="1">
          <mxGeometry x="30" y="30" width="10" height="20" as="geometry" />
        </mxCell>
        <mxCell id="cquxBugVdTG6TD16O6YO-87" value="" style="rounded=0;whiteSpace=wrap;html=1;fillColor=#f8cecc;strokeColor=#b85450;" parent="cquxBugVdTG6TD16O6YO-82" vertex="1">
          <mxGeometry x="40" y="20" width="10" height="40" as="geometry" />
        </mxCell>
        <mxCell id="cquxBugVdTG6TD16O6YO-88" value="" style="rounded=0;whiteSpace=wrap;html=1;fillColor=#f8cecc;strokeColor=#b85450;" parent="cquxBugVdTG6TD16O6YO-82" vertex="1">
          <mxGeometry x="50" y="10" width="10" height="60" as="geometry" />
        </mxCell>
        <mxCell id="cquxBugVdTG6TD16O6YO-89" value="" style="rounded=0;whiteSpace=wrap;html=1;fillColor=#f8cecc;strokeColor=#b85450;" parent="cquxBugVdTG6TD16O6YO-82" vertex="1">
          <mxGeometry x="60" width="10" height="80" as="geometry" />
        </mxCell>
        <mxCell id="PpGFP4gauC4CYrN17JIB-36" style="edgeStyle=orthogonalEdgeStyle;rounded=0;orthogonalLoop=1;jettySize=auto;html=1;entryX=0.5;entryY=0;entryDx=0;entryDy=0;" edge="1" parent="1" source="cquxBugVdTG6TD16O6YO-92" target="PpGFP4gauC4CYrN17JIB-32">
          <mxGeometry relative="1" as="geometry" />
        </mxCell>
        <mxCell id="cquxBugVdTG6TD16O6YO-92" value="$$\hat{\epsilon}_{1}$$" style="text;html=1;align=center;verticalAlign=middle;whiteSpace=wrap;rounded=0;fontSize=18;" parent="1" vertex="1">
          <mxGeometry x="1934" y="685" width="30" height="30" as="geometry" />
        </mxCell>
        <mxCell id="PpGFP4gauC4CYrN17JIB-18" style="edgeStyle=orthogonalEdgeStyle;rounded=0;orthogonalLoop=1;jettySize=auto;html=1;entryX=0.5;entryY=0;entryDx=0;entryDy=0;" edge="1" parent="1" source="cquxBugVdTG6TD16O6YO-95" target="PpGFP4gauC4CYrN17JIB-15">
          <mxGeometry relative="1" as="geometry" />
        </mxCell>
        <mxCell id="cquxBugVdTG6TD16O6YO-95" value="$$\hat{\epsilon}_{T}$$" style="text;html=1;align=center;verticalAlign=middle;whiteSpace=wrap;rounded=0;fontSize=18;" parent="1" vertex="1">
          <mxGeometry x="2265" y="685" width="30" height="30" as="geometry" />
        </mxCell>
        <mxCell id="PpGFP4gauC4CYrN17JIB-5" style="edgeStyle=orthogonalEdgeStyle;rounded=0;orthogonalLoop=1;jettySize=auto;html=1;entryX=1;entryY=0.75;entryDx=0;entryDy=0;" edge="1" parent="1" source="cquxBugVdTG6TD16O6YO-96" target="cquxBugVdTG6TD16O6YO-81">
          <mxGeometry relative="1" as="geometry">
            <Array as="points">
              <mxPoint x="2419" y="720" />
            </Array>
          </mxGeometry>
        </mxCell>
        <mxCell id="cquxBugVdTG6TD16O6YO-96" value="$$\hat{\mathbf{x}}_{T}$$" style="ellipse;whiteSpace=wrap;html=1;aspect=fixed;fontSize=18;fillColor=default;" parent="1" vertex="1">
          <mxGeometry x="2399.24" y="780" width="40" height="40" as="geometry" />
        </mxCell>
        <mxCell id="cquxBugVdTG6TD16O6YO-97" value="$$f_{\theta}(\mathbf{x}_1, 1)$$" style="text;html=1;align=center;verticalAlign=middle;whiteSpace=wrap;rounded=0;fontSize=14;" parent="1" vertex="1">
          <mxGeometry x="1990" y="740" width="70" height="30" as="geometry" />
        </mxCell>
        <mxCell id="cquxBugVdTG6TD16O6YO-98" value="$$f_{\theta} (\mathbf{x}_{T}, T)$$" style="text;html=1;align=center;verticalAlign=middle;whiteSpace=wrap;rounded=0;fontSize=14;" parent="1" vertex="1">
          <mxGeometry x="2310" y="740" width="90" height="30" as="geometry" />
        </mxCell>
        <mxCell id="PpGFP4gauC4CYrN17JIB-11" style="edgeStyle=orthogonalEdgeStyle;rounded=0;orthogonalLoop=1;jettySize=auto;html=1;entryX=1;entryY=0.25;entryDx=0;entryDy=0;" edge="1" parent="1" source="cquxBugVdTG6TD16O6YO-100" target="cquxBugVdTG6TD16O6YO-89">
          <mxGeometry relative="1" as="geometry" />
        </mxCell>
        <mxCell id="cquxBugVdTG6TD16O6YO-100" value="$$1$$" style="text;html=1;align=center;verticalAlign=middle;whiteSpace=wrap;rounded=0;fontSize=14;" parent="1" vertex="1">
          <mxGeometry x="2080" y="665" width="20" height="30" as="geometry" />
        </mxCell>
        <mxCell id="PpGFP4gauC4CYrN17JIB-6" style="edgeStyle=orthogonalEdgeStyle;rounded=0;orthogonalLoop=1;jettySize=auto;html=1;entryX=1;entryY=0.25;entryDx=0;entryDy=0;" edge="1" parent="1" source="cquxBugVdTG6TD16O6YO-102" target="cquxBugVdTG6TD16O6YO-81">
          <mxGeometry relative="1" as="geometry" />
        </mxCell>
        <mxCell id="cquxBugVdTG6TD16O6YO-102" value="$$T$$" style="text;html=1;align=center;verticalAlign=middle;whiteSpace=wrap;rounded=0;fontSize=14;" parent="1" vertex="1">
          <mxGeometry x="2410" y="665" width="20" height="30" as="geometry" />
        </mxCell>
        <mxCell id="cquxBugVdTG6TD16O6YO-103" value="$$\mathbf{x}_{0}$$" style="ellipse;whiteSpace=wrap;html=1;aspect=fixed;fontSize=18;fillColor=default;" parent="1" vertex="1">
          <mxGeometry x="1880" y="560" width="40" height="40" as="geometry" />
        </mxCell>
        <mxCell id="cquxBugVdTG6TD16O6YO-106" value="$$\mathbf{x}_{T}$$" style="ellipse;whiteSpace=wrap;html=1;aspect=fixed;fontSize=18;fillColor=default;" parent="1" vertex="1">
          <mxGeometry x="2400" y="560" width="40" height="40" as="geometry" />
        </mxCell>
        <mxCell id="cquxBugVdTG6TD16O6YO-108" style="edgeStyle=orthogonalEdgeStyle;rounded=0;orthogonalLoop=1;jettySize=auto;html=1;fillColor=#f8cecc;strokeColor=#b85450;strokeWidth=2;exitX=0;exitY=0.5;exitDx=0;exitDy=0;" parent="1" source="cquxBugVdTG6TD16O6YO-96" target="cquxBugVdTG6TD16O6YO-131" edge="1">
          <mxGeometry relative="1" as="geometry">
            <Array as="points" />
            <mxPoint x="2365.76" y="800" as="sourcePoint" />
          </mxGeometry>
        </mxCell>
        <mxCell id="cquxBugVdTG6TD16O6YO-110" style="edgeStyle=orthogonalEdgeStyle;rounded=0;orthogonalLoop=1;jettySize=auto;html=1;fillColor=#dae8fc;strokeColor=#6c8ebf;strokeWidth=2;exitX=1;exitY=0.5;exitDx=0;exitDy=0;" parent="1" source="cquxBugVdTG6TD16O6YO-116" target="cquxBugVdTG6TD16O6YO-135" edge="1">
          <mxGeometry relative="1" as="geometry" />
        </mxCell>
        <mxCell id="cquxBugVdTG6TD16O6YO-111" value="$$\mathbf{x}_{T-1}$$" style="ellipse;whiteSpace=wrap;html=1;aspect=fixed;fontSize=14;fillColor=default;" parent="1" vertex="1">
          <mxGeometry x="2180" y="560" width="40" height="40" as="geometry" />
        </mxCell>
        <mxCell id="cquxBugVdTG6TD16O6YO-116" value="$$\mathbf{x}_{1}$$" style="ellipse;whiteSpace=wrap;html=1;aspect=fixed;fontSize=18;fillColor=default;" parent="1" vertex="1">
          <mxGeometry x="2060" y="560" width="40" height="40" as="geometry" />
        </mxCell>
        <mxCell id="cquxBugVdTG6TD16O6YO-117" value="" style="edgeStyle=orthogonalEdgeStyle;rounded=0;orthogonalLoop=1;jettySize=auto;html=1;fillColor=#dae8fc;strokeColor=#6c8ebf;strokeWidth=2;exitX=1;exitY=0.5;exitDx=0;exitDy=0;" parent="1" source="cquxBugVdTG6TD16O6YO-103" target="cquxBugVdTG6TD16O6YO-116" edge="1">
          <mxGeometry relative="1" as="geometry">
            <mxPoint x="1960" y="580" as="sourcePoint" />
            <mxPoint x="1980" y="580" as="targetPoint" />
            <Array as="points">
              <mxPoint x="1970" y="580" />
              <mxPoint x="1970" y="580" />
            </Array>
          </mxGeometry>
        </mxCell>
        <mxCell id="cquxBugVdTG6TD16O6YO-120" style="edgeStyle=orthogonalEdgeStyle;rounded=0;orthogonalLoop=1;jettySize=auto;html=1;fillColor=#f8cecc;strokeColor=#b85450;strokeWidth=2;exitX=0;exitY=0.5;exitDx=0;exitDy=0;" parent="1" source="cquxBugVdTG6TD16O6YO-128" target="cquxBugVdTG6TD16O6YO-121" edge="1">
          <mxGeometry relative="1" as="geometry" />
        </mxCell>
        <mxCell id="PpGFP4gauC4CYrN17JIB-33" style="edgeStyle=orthogonalEdgeStyle;rounded=0;orthogonalLoop=1;jettySize=auto;html=1;entryX=1;entryY=0.75;entryDx=0;entryDy=0;exitX=0.5;exitY=0;exitDx=0;exitDy=0;" edge="1" parent="1" source="cquxBugVdTG6TD16O6YO-121" target="cquxBugVdTG6TD16O6YO-89">
          <mxGeometry relative="1" as="geometry">
            <Array as="points">
              <mxPoint x="2080" y="720" />
            </Array>
          </mxGeometry>
        </mxCell>
        <mxCell id="cquxBugVdTG6TD16O6YO-121" value="$$\hat{\mathbf{x}}_{1}$$" style="ellipse;whiteSpace=wrap;html=1;aspect=fixed;fontSize=18;fillColor=default;" parent="1" vertex="1">
          <mxGeometry x="2060" y="780" width="40" height="40" as="geometry" />
        </mxCell>
        <mxCell id="cquxBugVdTG6TD16O6YO-127" style="edgeStyle=orthogonalEdgeStyle;rounded=0;orthogonalLoop=1;jettySize=auto;html=1;fillColor=#f8cecc;strokeColor=#b85450;strokeWidth=2;exitX=0;exitY=0.5;exitDx=0;exitDy=0;" parent="1" source="cquxBugVdTG6TD16O6YO-131" target="cquxBugVdTG6TD16O6YO-128" edge="1">
          <mxGeometry relative="1" as="geometry" />
        </mxCell>
        <mxCell id="cquxBugVdTG6TD16O6YO-128" value="&lt;span style=&quot;font-size: 14px;&quot;&gt;$$...$$&lt;/span&gt;" style="rounded=0;whiteSpace=wrap;html=1;spacingTop=-6;" parent="1" vertex="1">
          <mxGeometry x="2125.76" y="785" width="30" height="29" as="geometry" />
        </mxCell>
        <mxCell id="cquxBugVdTG6TD16O6YO-130" value="$$\mathbf{x}_{0}$$" style="ellipse;whiteSpace=wrap;html=1;aspect=fixed;fontSize=18;fillColor=default;" parent="1" vertex="1">
          <mxGeometry x="1880" y="780" width="40" height="40" as="geometry" />
        </mxCell>
        <mxCell id="cquxBugVdTG6TD16O6YO-131" value="$$\hat{\mathbf{x}}_{T-1}$$" style="ellipse;whiteSpace=wrap;html=1;aspect=fixed;fontSize=14;fillColor=default;" parent="1" vertex="1">
          <mxGeometry x="2180" y="779.5" width="40" height="40" as="geometry" />
        </mxCell>
        <mxCell id="cquxBugVdTG6TD16O6YO-134" value="" style="edgeStyle=orthogonalEdgeStyle;rounded=0;orthogonalLoop=1;jettySize=auto;html=1;fillColor=#dae8fc;strokeColor=#6c8ebf;strokeWidth=2;exitX=1;exitY=0.5;exitDx=0;exitDy=0;" parent="1" source="cquxBugVdTG6TD16O6YO-135" target="cquxBugVdTG6TD16O6YO-111" edge="1">
          <mxGeometry relative="1" as="geometry">
            <mxPoint x="1910" y="579" as="sourcePoint" />
            <mxPoint x="2160" y="579" as="targetPoint" />
          </mxGeometry>
        </mxCell>
        <mxCell id="cquxBugVdTG6TD16O6YO-135" value="&lt;span style=&quot;font-size: 14px;&quot;&gt;$$...$$&lt;/span&gt;" style="rounded=0;whiteSpace=wrap;html=1;spacingTop=-6;" parent="1" vertex="1">
          <mxGeometry x="2124.76" y="565.5" width="30" height="29" as="geometry" />
        </mxCell>
        <mxCell id="cquxBugVdTG6TD16O6YO-143" value="" style="edgeStyle=orthogonalEdgeStyle;rounded=0;orthogonalLoop=1;jettySize=auto;html=1;fillColor=#f8cecc;strokeColor=#b85450;strokeWidth=2;exitX=0;exitY=0.5;exitDx=0;exitDy=0;" parent="1" source="cquxBugVdTG6TD16O6YO-121" target="cquxBugVdTG6TD16O6YO-130" edge="1">
          <mxGeometry relative="1" as="geometry">
            <mxPoint x="2134" y="800" as="sourcePoint" />
            <mxPoint x="1920" y="800" as="targetPoint" />
            <Array as="points" />
          </mxGeometry>
        </mxCell>
        <mxCell id="cquxBugVdTG6TD16O6YO-147" value="" style="edgeStyle=orthogonalEdgeStyle;rounded=0;orthogonalLoop=1;jettySize=auto;html=1;fillColor=#dae8fc;strokeColor=#6c8ebf;strokeWidth=2;exitX=1;exitY=0.5;exitDx=0;exitDy=0;" parent="1" source="cquxBugVdTG6TD16O6YO-111" target="cquxBugVdTG6TD16O6YO-106" edge="1">
          <mxGeometry relative="1" as="geometry">
            <mxPoint x="2310" y="560" as="sourcePoint" />
            <mxPoint x="2400" y="580" as="targetPoint" />
          </mxGeometry>
        </mxCell>
        <mxCell id="PpGFP4gauC4CYrN17JIB-7" style="edgeStyle=orthogonalEdgeStyle;rounded=0;orthogonalLoop=1;jettySize=auto;html=1;" edge="1" parent="1" source="cquxBugVdTG6TD16O6YO-75" target="cquxBugVdTG6TD16O6YO-95">
          <mxGeometry relative="1" as="geometry" />
        </mxCell>
        <mxCell id="PpGFP4gauC4CYrN17JIB-40" style="edgeStyle=orthogonalEdgeStyle;rounded=0;orthogonalLoop=1;jettySize=auto;html=1;entryX=0.5;entryY=1;entryDx=0;entryDy=0;" edge="1" parent="1" source="PpGFP4gauC4CYrN17JIB-9" target="PpGFP4gauC4CYrN17JIB-39">
          <mxGeometry relative="1" as="geometry" />
        </mxCell>
        <mxCell id="PpGFP4gauC4CYrN17JIB-41" value="&lt;span style=&quot;font-size: 14px;&quot;&gt;$$\mathcal{L}_{1}$$&lt;/span&gt;" style="edgeStyle=orthogonalEdgeStyle;rounded=0;orthogonalLoop=1;jettySize=auto;html=1;startArrow=classic;startFill=1;strokeColor=#FF0000;" edge="1" parent="1" source="PpGFP4gauC4CYrN17JIB-9" target="cquxBugVdTG6TD16O6YO-92">
          <mxGeometry relative="1" as="geometry" />
        </mxCell>
        <mxCell id="PpGFP4gauC4CYrN17JIB-9" value="$${\epsilon}_{1}$$" style="text;html=1;align=center;verticalAlign=middle;whiteSpace=wrap;rounded=0;fontSize=18;" vertex="1" parent="1">
          <mxGeometry x="2003.5" y="620" width="30" height="20" as="geometry" />
        </mxCell>
        <mxCell id="PpGFP4gauC4CYrN17JIB-12" style="edgeStyle=orthogonalEdgeStyle;rounded=0;orthogonalLoop=1;jettySize=auto;html=1;" edge="1" parent="1" source="cquxBugVdTG6TD16O6YO-83" target="cquxBugVdTG6TD16O6YO-92">
          <mxGeometry relative="1" as="geometry" />
        </mxCell>
        <mxCell id="PpGFP4gauC4CYrN17JIB-14" value="+" style="ellipse;whiteSpace=wrap;html=1;spacingTop=-2;" vertex="1" parent="1">
          <mxGeometry x="2239.76" y="789.5" width="20" height="20" as="geometry" />
        </mxCell>
        <mxCell id="PpGFP4gauC4CYrN17JIB-15" value="-" style="ellipse;whiteSpace=wrap;html=1;spacingTop=-2;" vertex="1" parent="1">
          <mxGeometry x="2270" y="789.5" width="20" height="20" as="geometry" />
        </mxCell>
        <mxCell id="PpGFP4gauC4CYrN17JIB-26" style="edgeStyle=orthogonalEdgeStyle;rounded=0;orthogonalLoop=1;jettySize=auto;html=1;entryX=0.5;entryY=1;entryDx=0;entryDy=0;" edge="1" parent="1" source="PpGFP4gauC4CYrN17JIB-19" target="PpGFP4gauC4CYrN17JIB-20">
          <mxGeometry relative="1" as="geometry" />
        </mxCell>
        <mxCell id="PpGFP4gauC4CYrN17JIB-27" value="&lt;span style=&quot;font-size: 14px;&quot;&gt;$$\mathcal{L}_{T}$$&lt;/span&gt;" style="edgeStyle=orthogonalEdgeStyle;rounded=0;orthogonalLoop=1;jettySize=auto;html=1;entryX=0.5;entryY=0;entryDx=0;entryDy=0;startArrow=classic;startFill=1;strokeColor=#FF0000;" edge="1" parent="1" source="PpGFP4gauC4CYrN17JIB-19" target="cquxBugVdTG6TD16O6YO-95">
          <mxGeometry relative="1" as="geometry" />
        </mxCell>
        <mxCell id="PpGFP4gauC4CYrN17JIB-19" value="$${\epsilon}_{T}$$" style="text;html=1;align=center;verticalAlign=middle;whiteSpace=wrap;rounded=0;fontSize=18;" vertex="1" parent="1">
          <mxGeometry x="2345" y="620" width="30" height="20" as="geometry" />
        </mxCell>
        <mxCell id="PpGFP4gauC4CYrN17JIB-20" value="+" style="ellipse;whiteSpace=wrap;html=1;spacingTop=-2;" vertex="1" parent="1">
          <mxGeometry x="2350" y="570" width="20" height="20" as="geometry" />
        </mxCell>
        <mxCell id="PpGFP4gauC4CYrN17JIB-31" style="edgeStyle=orthogonalEdgeStyle;rounded=0;orthogonalLoop=1;jettySize=auto;html=1;entryX=0.5;entryY=0;entryDx=0;entryDy=0;" edge="1" parent="1" source="PpGFP4gauC4CYrN17JIB-30" target="PpGFP4gauC4CYrN17JIB-14">
          <mxGeometry relative="1" as="geometry" />
        </mxCell>
        <mxCell id="PpGFP4gauC4CYrN17JIB-30" value="$$\sigma_{T} \cdot \mathbf{z}$$" style="text;html=1;align=center;verticalAlign=middle;whiteSpace=wrap;rounded=0;fontSize=18;fillColor=none;strokeColor=none;" vertex="1" parent="1">
          <mxGeometry x="2222.26" y="730" width="55" height="30" as="geometry" />
        </mxCell>
        <mxCell id="PpGFP4gauC4CYrN17JIB-32" value="-" style="ellipse;whiteSpace=wrap;html=1;spacingTop=-2;" vertex="1" parent="1">
          <mxGeometry x="1939" y="790" width="20" height="20" as="geometry" />
        </mxCell>
        <mxCell id="PpGFP4gauC4CYrN17JIB-39" value="+" style="ellipse;whiteSpace=wrap;html=1;spacingTop=-2;" vertex="1" parent="1">
          <mxGeometry x="2008.5" y="570" width="20" height="20" as="geometry" />
        </mxCell>
        <mxCell id="PpGFP4gauC4CYrN17JIB-46" value="$$\mathbf{x}_{t-1} = \frac{1}{\sqrt{\alpha_t}} \left( \mathbf{x}_t - \frac{1 - \alpha_t}{\sqrt{1 - \bar{\alpha}_t}} \color{red}{f_{\theta&#39;}} \color{black}(\mathbf{x}_t, t) \right) + \sigma_t \mathbf{z}$$" style="text;html=1;align=center;verticalAlign=middle;whiteSpace=wrap;rounded=0;fontSize=18;" vertex="1" parent="1">
          <mxGeometry x="1880" y="920" width="440" height="80" as="geometry" />
        </mxCell>
      </root>
    </mxGraphModel>
  </diagram>
</mxfile>
